
<svg xmlns="http://www.w3.org/2000/svg" version="1.1" xmlns:xlink="http://www.w3.org/1999/xlink" preserveAspectRatio="none" x="0px" y="0px" width="16px" height="16px" viewBox="0 0 16 16">
<defs>
<g id="Layer1_0_FILL">
<path fill="#FC7F7F" stroke="none" d="
M 14.75 10.1
L 14.75 11.5
Q 14.8859375 11.758984375 14.9 12 14.8806640625 12.22890625 14.75 12.45
L 14.75 13
Q 14.7556640625 13.284375 14.55 13.5 14.38359375 13.712890625 14.1 13.75 13.8158203125 13.7841796875 13.55 13.6
L 13.35 13.45
Q 13.2123046875 13.5208984375 13.05 13.55
L 13.05 13.6
Q 10.9833984375 14.45546875 8.1 14.45 5.3251953125 14.4552734375 3.3 13.65 3.049609375 13.5998046875 2.85 13.45 1.369140625 12.81640625 1.3 12 1.358203125 11.3638671875 2.25 10.8
L 2.25 10.35
Q 1.9212890625 10.1828125 1.65 9.95 0.23671875 10.8697265625 0.3 12 0.22109375 13.512109375 2.75 14.5
L 2.75 14.5
Q 4.9833984375 15.4443359375 8.1 15.45 11.21640625 15.4443359375 13.45 14.5
L 13.95 14.3
Q 15.9787109375 13.512109375 15.9 12 15.9310546875 11.0267578125 14.85 10.2 14.80078125 10.1640625 14.75 10.1 Z"/>
</g>

<g id="Layer0_0_FILL">
<path fill="#FC7F7F" stroke="none" d="
M 11.95 5.2
Q 12 3.95 11.2 3 10.35 2.1 9 2 7.8 2 6.95 2.8 6.1 3.65 6 4.8 5.05 3.95 3.8 4 2.55 4.05 1.75 5 0.9 5.9 0.95 7.15 1 8.35 1.9 9.2 2.3 9.6 3 9.85
L 3 12
Q 3 13 4 13
L 10 13
Q 10.4 13 10.7 12.75 11 12.45 11 12
L 11 11 14 13 14 7 11 9 11 7.25
Q 11.9 6.4 11.95 5.2 Z"/>
</g>
</defs>

<g transform="matrix( 1, 0, 0, 1, 0,0) ">
<use xlink:href="#Layer1_0_FILL"/>
</g>

<g transform="matrix( 1, 0, 0, 1, 0,0) ">
<use xlink:href="#Layer0_0_FILL"/>
</g>
</svg>
